<?xml version="1.0" standalone="no"?>
<!DOCTYPE svg PUBLIC "-//W3C//DTD SVG 20010904//EN"
 "http://www.w3.org/TR/2001/REC-SVG-20010904/DTD/svg10.dtd">
<svg version="1.0" xmlns="http://www.w3.org/2000/svg"
 width="260.000000pt" height="260.000000pt" viewBox="0 0 260.000000 260.000000"
 preserveAspectRatio="xMidYMid meet">
<metadata>
Created by potrace 1.11, written by Peter Selinger 2001-2013
</metadata>
<g transform="translate(0.000000,260.000000) scale(0.100000,-0.100000)"
fill="#000000" stroke="none">
<path d="M815 2524 c-9 -9 -14 -18 -11 -21 6 -6 46 20 46 29 0 13 -18 9 -35
-8z"/>
<path d="M880 2530 c0 -5 5 -10 11 -10 5 0 7 5 4 10 -3 6 -8 10 -11 10 -2 0
-4 -4 -4 -10z"/>
<path d="M1280 2519 c0 -13 5 -31 10 -39 7 -11 8 -5 4 20 -8 43 -14 51 -14 19z"/>
<path d="M1560 2476 c0 -10 28 -13 41 -5 10 6 7 9 -13 9 -16 0 -28 -2 -28 -4z"/>
<path d="M780 2435 c0 -46 14 -46 17 0 1 19 -3 35 -8 35 -5 0 -9 -16 -9 -35z"/>
<path d="M1246 2455 c-11 -8 -17 -17 -14 -20 2 -3 13 4 23 15 21 23 18 25 -9
5z"/>
<path d="M1529 2453 c-13 -16 -12 -17 4 -4 9 7 17 15 17 17 0 8 -8 3 -21 -13z"/>
<path d="M1620 2456 c0 -8 -6 -17 -12 -19 -10 -4 -10 -6 -1 -6 6 -1 15 4 18
10 5 7 14 4 28 -8 18 -14 17 -12 -2 10 -28 31 -31 32 -31 13z"/>
<path d="M1286 2418 c-9 -22 -15 -42 -13 -45 3 -2 9 10 15 26 6 17 18 31 26
31 19 0 21 16 3 23 -8 3 -20 -10 -31 -35z"/>
<path d="M855 2420 c47 -55 48 -56 37 -35 -6 11 -23 31 -39 45 l-28 25 30 -35z"/>
<path d="M991 2422 c-1 -23 -5 -31 -13 -26 -8 5 -9 2 -5 -11 12 -31 -54 -63
-67 -32 -2 6 -3 1 -2 -13 2 -14 6 -24 10 -23 3 2 17 5 30 9 30 7 59 64 53 102
-4 24 -4 24 -6 -6z"/>
<path d="M940 2436 c0 -2 8 -10 18 -17 15 -13 16 -12 3 4 -13 16 -21 21 -21
13z"/>
<path d="M806 2418 c5 -7 9 -17 9 -23 1 -5 6 -9 13 -8 6 2 19 -11 27 -27 9
-17 11 -30 5 -30 -5 0 -10 5 -10 10 0 6 -5 10 -11 10 -8 0 -8 -5 1 -15 12 -15
40 -21 40 -9 0 16 -44 82 -62 93 -16 10 -19 10 -12 -1z"/>
<path d="M1515 2419 c-12 -19 5 -78 28 -94 28 -19 48 -19 41 0 -5 11 1 15 22
16 26 2 26 2 5 6 -13 3 -28 0 -34 -6 -16 -16 -40 -14 -33 4 3 8 2 15 -3 15
-14 0 -21 43 -9 57 7 9 7 13 0 13 -6 0 -14 -5 -17 -11z"/>
<path d="M1660 2390 c0 -5 5 -10 10 -10 6 0 10 5 10 10 0 6 -4 10 -10 10 -5 0
-10 -4 -10 -10z"/>
<path d="M1664 2345 c-3 -8 -15 -17 -26 -21 -11 -3 -17 -8 -15 -11 8 -8 44 15
51 32 3 8 3 15 0 15 -2 0 -7 -7 -10 -15z"/>
<path d="M757 2193 c-11 -13 -25 -22 -33 -19 -22 9 -16 0 14 -19 15 -10 21
-12 15 -4 -10 10 -9 17 9 36 12 13 20 25 17 27 -2 2 -12 -7 -22 -21z"/>
<path d="M790 2149 c0 -5 5 -7 10 -4 6 3 10 8 10 11 0 2 -4 4 -10 4 -5 0 -10
-5 -10 -11z"/>
<path d="M768 2105 c2 -14 6 -25 8 -25 2 0 4 11 4 25 0 14 -4 25 -9 25 -4 0
-6 -11 -3 -25z"/>
<path d="M1449 2084 c-4 -12 -2 -29 3 -38 7 -13 5 -22 -6 -35 -9 -10 -16 -26
-15 -37 1 -14 3 -13 8 6 4 14 17 30 30 36 17 9 19 13 7 17 -8 3 -16 21 -18 39
-2 27 -4 29 -9 12z"/>
<path d="M1710 2082 c-14 -2 -29 -8 -35 -14 -7 -7 -3 -8 12 -4 27 8 39 -9 21
-32 -11 -15 -11 -16 3 -4 9 7 25 10 35 6 18 -5 18 -5 0 10 -11 9 -17 18 -14
22 9 8 48 -19 48 -33 0 -7 7 -13 15 -13 23 0 18 26 -7 42 -32 20 -49 25 -78
20z"/>
<path d="M1131 2057 c2 -2 18 -11 34 -21 l30 -17 -24 20 c-13 12 -28 21 -34
21 -6 0 -8 -1 -6 -3z"/>
<path d="M1025 2026 c-19 -29 -25 -104 -9 -110 6 -2 26 -1 45 4 l34 8 -37 1
c-37 1 -38 2 -38 36 0 20 7 47 16 60 9 14 14 25 10 25 -3 0 -13 -11 -21 -24z"/>
<path d="M1401 2028 c5 -10 13 -18 16 -18 3 0 3 3 0 7 -4 3 -3 11 3 17 6 8 3
12 -10 12 -15 0 -16 -4 -9 -18z"/>
<path d="M1657 2023 c-15 -14 -6 -30 16 -29 18 1 23 -5 25 -31 3 -28 1 -32
-15 -26 -15 5 -16 4 -5 -8 20 -21 44 14 32 46 -5 13 -6 26 -2 30 4 4 3 6 -3 5
-5 -1 -17 -2 -25 -1 -13 1 -13 2 0 11 13 8 13 10 -1 10 -9 0 -19 -3 -22 -7z"/>
<path d="M1200 2006 c0 -2 6 -9 14 -15 10 -9 15 -8 20 4 4 10 -1 15 -14 15
-11 0 -20 -2 -20 -4z"/>
<path d="M1747 2001 c2 -2 -5 -10 -15 -18 -15 -12 -15 -12 0 -7 11 4 21 -2 28
-16 14 -25 6 -36 -30 -43 l-25 -4 27 -2 c15 0 33 6 42 14 8 8 19 15 25 15 6 0
11 4 11 9 0 5 3 18 7 28 6 17 5 17 -15 -1 -12 -11 -25 -16 -30 -11 -4 4 -1 10
6 12 6 3 12 10 12 16 0 8 -3 8 -12 -1 -9 -9 -14 -8 -22 1 -6 7 -10 10 -9 8z"/>
<path d="M1238 1972 c-10 -2 -18 -12 -18 -23 0 -18 1 -18 21 2 23 23 22 27 -3
21z"/>
<path d="M973 1954 c-3 -8 -2 -19 3 -24 5 -5 9 1 9 16 0 28 -3 30 -12 8z"/>
<path d="M1186 1903 c-4 -4 -31 -10 -59 -14 l-52 -6 46 -2 c26 0 53 5 65 14
10 8 16 15 13 15 -3 0 -9 -3 -13 -7z"/>
<path d="M2018 1844 c-3 -21 0 -31 9 -31 14 0 15 12 4 42 -7 17 -9 16 -13 -11z"/>
<path d="M907 1780 c-3 -11 -1 -23 4 -26 5 -3 9 6 9 20 0 31 -6 34 -13 6z"/>
<path d="M1410 1780 c-11 -11 -20 -27 -20 -36 0 -26 20 -54 38 -54 15 1 15 2
-2 15 -11 8 -15 15 -9 15 7 0 19 -7 27 -16 10 -9 24 -13 36 -9 12 4 20 2 20
-5 0 -6 -4 -9 -9 -5 -5 3 -12 1 -16 -5 -8 -13 11 -13 36 0 27 15 24 25 -8 27
-45 2 -103 25 -103 41 0 9 6 12 17 8 10 -4 14 -4 11 0 -4 4 -3 15 3 25 13 25
4 24 -21 -1z"/>
<path d="M1480 1780 c8 -5 20 -10 25 -10 6 0 3 5 -5 10 -8 5 -19 10 -25 10 -5
0 -3 -5 5 -10z"/>
<path d="M1970 1776 c0 -2 7 -9 15 -16 13 -11 14 -10 9 4 -5 14 -24 23 -24 12z"/>
<path d="M2047 1741 c-14 -17 -28 -27 -32 -23 -4 4 -2 -4 6 -18 l14 -25 3 25
c5 33 20 50 44 50 10 0 16 5 13 10 -10 16 -22 12 -48 -19z"/>
<path d="M1510 1748 c0 -9 -6 -19 -12 -21 -7 -3 -8 -6 -3 -6 6 0 17 4 25 9 12
7 12 12 2 22 -9 9 -12 9 -12 -4z"/>
<path d="M1440 1746 c0 -3 9 -10 20 -16 11 -6 20 -8 20 -6 0 3 -9 10 -20 16
-11 6 -20 8 -20 6z"/>
<path d="M863 1727 l-22 -12 25 -12 c20 -9 23 -9 15 1 -7 9 -7 16 1 24 15 15
9 15 -19 -1z"/>
<path d="M571 1684 c0 -11 3 -14 6 -6 3 7 2 16 -1 19 -3 4 -6 -2 -5 -13z"/>
<path d="M1115 1674 c-9 -9 -14 -18 -12 -21 10 -9 47 -11 53 -2 3 5 0 8 -7 7
-6 -2 -13 2 -16 9 -2 7 8 13 24 16 l28 4 -27 2 c-15 0 -34 -6 -43 -15z"/>
<path d="M1682 1670 c0 -14 2 -19 5 -12 2 6 2 18 0 25 -3 6 -5 1 -5 -13z"/>
<path d="M896 1653 c9 -38 14 -42 14 -10 0 14 -5 29 -10 32 -7 4 -8 -3 -4 -22z"/>
<path d="M1200 1661 c6 -12 15 -21 20 -21 18 0 11 19 -11 30 -19 11 -20 10 -9
-9z"/>
<path d="M1220 1615 c0 -8 6 -15 13 -15 6 0 1 -9 -13 -20 -14 -11 -20 -20 -13
-20 18 0 43 29 43 51 0 10 -7 19 -15 19 -8 0 -15 -7 -15 -15z"/>
<path d="M1630 1626 c0 -2 7 -6 15 -10 8 -3 15 -1 15 4 0 6 -7 10 -15 10 -8 0
-15 -2 -15 -4z"/>
<path d="M1696 1621 c-4 -5 3 -7 14 -4 23 6 26 13 6 13 -8 0 -17 -4 -20 -9z"/>
<path d="M1133 1608 c2 -7 8 -13 13 -13 5 0 15 -4 22 -9 7 -4 16 -5 19 -2 4 3
0 6 -8 6 -12 0 -11 2 1 11 13 9 12 10 -2 5 -10 -3 -20 -1 -23 4 -9 15 -27 12
-22 -2z"/>
<path d="M701 1584 c0 -11 3 -14 6 -6 3 7 2 16 -1 19 -3 4 -6 -2 -5 -13z"/>
<path d="M1100 1596 c0 -2 8 -10 18 -17 15 -13 16 -12 3 4 -13 16 -21 21 -21
13z"/>
<path d="M1371 1584 c0 -11 3 -14 6 -6 3 7 2 16 -1 19 -3 4 -6 -2 -5 -13z"/>
<path d="M1681 1564 c0 -11 3 -14 6 -6 3 7 2 16 -1 19 -3 4 -6 -2 -5 -13z"/>
<path d="M1387 1546 c-4 -10 1 -12 14 -9 23 6 24 9 5 16 -8 3 -17 0 -19 -7z"/>
<path d="M1330 1530 c0 -5 5 -10 10 -10 6 0 10 5 10 10 0 6 -4 10 -10 10 -5 0
-10 -4 -10 -10z"/>
<path d="M1362 1480 c0 -14 2 -19 5 -12 2 6 2 18 0 25 -3 6 -5 1 -5 -13z"/>
<path d="M491 1474 c0 -11 3 -14 6 -6 3 7 2 16 -1 19 -3 4 -6 -2 -5 -13z"/>
<path d="M965 1454 c-9 -9 -13 -19 -9 -23 4 -3 9 0 11 7 3 6 9 12 14 12 6 0 5
-9 -2 -22 -8 -17 -4 -15 13 6 18 21 29 27 39 20 8 -4 21 -9 29 -9 8 0 14 -6
13 -12 -2 -7 1 -13 6 -13 5 0 11 -10 14 -21 7 -25 -19 -69 -39 -69 -8 0 -14
-4 -14 -10 0 -18 47 11 59 37 14 30 -7 86 -37 102 -30 16 -78 13 -97 -5z"/>
<path d="M460 1430 c-14 -11 -20 -20 -14 -20 6 0 19 9 29 20 23 25 17 25 -15
0z"/>
<path d="M1004 1417 c-12 -17 -27 -41 -32 -52 -6 -11 -12 -14 -12 -7 0 6 -5
12 -12 12 -6 0 -1 -11 12 -25 28 -30 45 -33 30 -6 -14 28 -12 38 3 16 10 -13
16 -15 21 -6 4 6 11 9 16 6 5 -3 12 0 16 6 5 8 3 9 -6 4 -10 -6 -12 -3 -7 11
6 15 3 14 -11 -5 -17 -21 -20 -22 -26 -6 -7 20 20 69 34 60 6 -3 7 1 4 9 -8
20 -5 21 -30 -17z"/>
<path d="M517 1419 c3 -10 12 -19 19 -19 20 0 17 13 -5 27 -16 10 -18 9 -14
-8z"/>
<path d="M1450 1419 c-12 -8 -11 -9 5 -5 11 3 33 -1 49 -9 16 -9 31 -13 34
-10 3 2 -11 12 -31 20 -43 18 -38 17 -57 4z"/>
<path d="M935 1401 c-3 -5 -1 -12 5 -16 5 -3 10 1 10 9 0 18 -6 21 -15 7z"/>
<path d="M1410 1395 c-7 -9 -11 -17 -9 -20 3 -2 10 5 17 15 14 24 10 26 -8 5z"/>
<path d="M1562 1364 c10 -22 10 -28 -5 -39 -9 -7 -17 -16 -17 -20 0 -5 9 0 20
10 11 10 20 14 20 8 0 -13 -21 -37 -50 -57 -13 -9 -20 -16 -14 -16 15 0 53 29
64 50 8 14 6 29 -4 55 -8 19 -17 35 -20 35 -3 0 0 -12 6 -26z"/>
<path d="M500 1363 c0 -4 5 -15 10 -23 8 -13 10 -13 10 2 0 9 -4 20 -10 23 -5
3 -10 3 -10 -2z"/>
<path d="M1455 1339 c-16 -5 -38 -7 -47 -5 -10 2 -18 -1 -18 -8 0 -14 34 -13
72 2 15 6 36 9 45 6 15 -5 16 -4 3 5 -17 12 -15 12 -55 0z"/>
<path d="M1017 1333 c-4 -3 -7 -11 -7 -17 0 -6 5 -5 12 2 6 6 9 14 7 17 -3 3
-9 2 -12 -2z"/>
<path d="M1400 1295 c0 -7 62 -45 73 -45 12 0 -21 32 -36 34 -6 1 -18 5 -24 9
-7 5 -13 6 -13 2z"/>
<path d="M842 1233 c0 -15 7 -36 15 -45 9 -10 13 -24 10 -31 -4 -12 -1 -12 18
-3 l23 10 -22 11 c-13 6 -22 22 -24 40 -5 40 -19 54 -20 18z"/>
<path d="M1808 1175 c-3 -14 -1 -25 3 -25 5 0 9 11 9 25 0 14 -2 25 -4 25 -2
0 -6 -11 -8 -25z"/>
<path d="M802 1172 c-9 -6 -7 -13 10 -28 17 -14 19 -15 9 -2 -7 9 -10 22 -6
28 7 12 4 12 -13 2z"/>
<path d="M850 1119 c0 -5 -4 -7 -10 -4 -6 3 -7 -1 -4 -9 9 -23 24 -20 24 4 0
11 -2 20 -5 20 -3 0 -5 -5 -5 -11z"/>
<path d="M1100 1105 c-69 -19 -110 -35 -110 -44 0 -30 119 -35 425 -16 44 3
90 8 102 11 19 5 23 1 29 -33 9 -53 25 -78 17 -28 -10 69 -27 91 -80 105 -77
20 -317 23 -383 5z"/>
<path d="M1775 1100 c10 -11 20 -20 22 -20 2 0 -2 9 -9 20 -7 11 -17 20 -22
20 -5 0 -1 -9 9 -20z"/>
<path d="M1848 1103 c7 -3 16 -2 19 1 4 3 -2 6 -13 5 -11 0 -14 -3 -6 -6z"/>
<path d="M1810 1044 c0 -8 5 -12 10 -9 6 4 8 11 5 16 -9 14 -15 11 -15 -7z"/>
<path d="M984 894 c1 -136 2 -142 33 -205 43 -87 93 -148 148 -183 25 -16 45
-34 45 -40 0 -8 23 -11 73 -10 101 3 105 4 111 20 7 17 6 17 -37 -1 -20 -8
-49 -15 -64 -15 -78 0 -207 109 -263 224 -32 65 -35 77 -41 210 l-7 141 2
-141z"/>
<path d="M1072 970 c-44 -10 -52 -20 -16 -20 17 0 34 4 40 9 5 6 34 12 64 14
l55 3 -55 1 c-30 1 -70 -3 -88 -7z"/>
<path d="M1300 960 c0 -11 5 -20 11 -20 5 0 7 5 3 11 -3 6 0 15 7 20 11 7 10
9 -3 9 -11 0 -18 -8 -18 -20z"/>
<path d="M1370 971 c42 -14 128 -23 109 -11 -9 5 -43 12 -75 15 -39 3 -51 2
-34 -4z"/>
<path d="M1571 945 c-1 -5 3 -36 9 -68 8 -54 6 -79 -15 -177 -3 -14 2 -7 11
15 18 44 21 162 5 210 -5 17 -10 26 -10 20z"/>
<path d="M1837 880 c-3 -11 -1 -18 3 -15 8 5 40 -32 40 -45 0 -4 -8 -15 -18
-26 -13 -14 -16 -27 -11 -49 l7 -30 1 28 c2 44 18 67 49 67 l27 0 -25 13 c-13
7 -34 27 -46 44 -19 29 -22 31 -27 13z"/>
<path d="M1446 819 c-10 -6 -45 -9 -78 -7 -36 3 -53 1 -43 -4 17 -10 149 -19
140 -10 -3 3 5 12 17 19 21 11 22 12 3 12 -11 0 -28 -4 -39 -10z"/>
<path d="M1053 805 c2 -5 33 -10 70 -10 36 0 71 5 76 10 7 7 -16 10 -69 10
-49 0 -79 -4 -77 -10z"/>
<path d="M1810 800 c0 -11 4 -20 9 -20 5 0 7 9 4 20 -3 11 -7 20 -9 20 -2 0
-4 -9 -4 -20z"/>
<path d="M1541 643 c-10 -26 -10 -27 4 -9 8 11 15 23 15 28 0 15 -7 8 -19 -19z"/>
<path d="M1248 648 c5 -5 16 -8 23 -6 8 3 3 7 -10 11 -17 4 -21 3 -13 -5z"/>
<path d="M1505 583 c-10 -15 -32 -40 -49 -57 -25 -24 -26 -27 -6 -14 29 18 86
86 78 93 -3 3 -13 -7 -23 -22z"/>
<path d="M1353 583 c10 -17 -8 -25 -72 -33 -55 -7 -55 -7 -11 -8 25 0 60 5 79
12 31 11 32 13 15 26 -10 8 -15 10 -11 3z"/>
<path d="M1220 421 c0 -33 -27 -90 -52 -112 -37 -33 -82 -48 -158 -55 -111
-11 -161 -55 -159 -139 l2 -40 6 45 c13 85 48 114 154 124 87 9 139 30 176 71
27 31 51 109 37 122 -3 4 -6 -4 -6 -16z"/>
<path d="M1372 405 c0 -16 2 -22 5 -12 2 9 2 23 0 30 -3 6 -5 -1 -5 -18z"/>
<path d="M1380 356 c-1 -52 79 -108 150 -105 14 1 3 6 -25 11 -55 10 -90 37
-111 83 -9 21 -13 25 -14 11z"/>
<path d="M1568 243 c6 -2 18 -2 25 0 6 3 1 5 -13 5 -14 0 -19 -2 -12 -5z"/>
<path d="M1639 226 c42 -15 69 -47 77 -94 4 -20 11 -44 16 -52 15 -24 -1 60
-19 97 -14 30 -65 64 -95 62 -7 0 2 -6 21 -13z"/>
<path d="M1640 176 c0 -8 -4 -16 -9 -18 -5 -1 -3 -9 5 -16 12 -11 14 -10 14 3
0 8 4 15 10 15 5 0 7 7 4 15 -8 19 -24 20 -24 1z"/>
<path d="M1665 130 c3 -5 8 -10 11 -10 2 0 4 5 4 10 0 6 -5 10 -11 10 -5 0 -7
-4 -4 -10z"/>
</g>
</svg>
